<svg id="Layer_1" viewBox="0 0 24 24" xmlns="http://www.w3.org/2000/svg" data-name="Layer 1"><path d="m23.181 11.628c-.896 3.38-2.49 6.963-5.018 11.275-.575.982-1.872 1.423-3.006.825-.737-.389-1.157-1.199-1.157-2.033v-6.696c0-1.105-.895-2-2-2s-2 .895-2 2v6.765c0 1.329-1.166 2.391-2.529 2.217-.72-.092-1.335-.566-1.701-1.193-2.498-4.276-5.77-10.652-5.77-17.061 0-.057.065-5.727 5.728-5.727 1.794 0 2.932.315 3.936.594.786.218 1.465.406 2.337.406s1.55-.188 2.336-.406c.297-.06.599.182.593.492 0 .215-.137.394-.327.465v.007c-.819.228-1.594.442-2.602.442s-1.783-.215-2.604-.443c-.988-.274-2.01-.557-3.668-.557-4.656 0-4.728 4.535-4.729 4.728 0 6.222 3.253 12.494 5.7 16.669.218.372.625.603 1.064.603.681 0 1.235-.554 1.235-1.235v-6.765c0-1.657 1.343-3 3-3s3 1.343 3 3v6.765c0 .682.554 1.235 1.235 1.235.439 0 .847-.23 1.065-.603 2.48-4.232 4.042-7.736 4.914-11.025.071-.267.346-.423.611-.355.267.071.426.345.355.611zm.653-6.89c-.245-.456-.72-.738-1.24-.738h-1.388l.694-1.975c.176-.459.116-.973-.161-1.376-.279-.406-.742-.649-1.239-.649h-2.202c-.642 0-1.212.401-1.417.995l-1.819 5.158c-.133.438-.051.901.223 1.271.271.366.687.576 1.139.576h1.383l-.75 2.247c-.188.66.114 1.324.734 1.617.588.285 1.32.117 1.69-.43l4.283-5.265c.286-.431.312-.979.069-1.431zm-.874.839-4.278 5.257c-.166.241-.396.158-.465.125-.067-.031-.279-.156-.205-.417l.962-2.884c.051-.152.025-.32-.068-.451-.094-.13-.245-.208-.406-.208h-2.077c-.132 0-.255-.062-.336-.172-.083-.113-.109-.253-.076-.364l1.813-5.14c.068-.197.253-.324.473-.324h2.202c.17 0 .321.079.416.215.091.133.11.298.046.465l-.933 2.653c-.054.153-.03.323.063.455s.246.211.408.211h2.093c.222 0 .325.147.359.211.034.062.098.226.008.366z"/></svg>